<svg height="512" viewBox="0 0 64 64" width="512" xmlns="http://www.w3.org/2000/svg"><g id="Layer_27" data-name="Layer 27"><path d="m2 30h60v32h-60z" fill="#c1c8d1"/><circle cx="32" cy="46" fill="#f7d881" r="12"/><path d="m41.93 39.26a12 12 0 1 0 -17.93 15.74c9.57-.51 17.23-7.25 17.93-15.74z" fill="#f9e09a"/><path d="m32 45a2 2 0 1 1 2-2h2a4 4 0 0 0 -3-3.86v-2.14h-2v2.14a4 4 0 0 0 1 7.86 2 2 0 1 1 -2 2h-2a4 4 0 0 0 3 3.86v2.14h2v-2.14a4 4 0 0 0 -1-7.86z" fill="#fff"/><path d="m48 45 5-7 5 7h-3v9h-4v-9z" fill="#fff"/><path d="m6 47 5 7 5-7h-3v-9h-4v9z" fill="#fff"/><g fill="#4472b0"><path d="m18 18h4v8h-4z"/><path d="m26 16h4v10h-4z"/><path d="m34 14h4v12h-4z"/><path d="m42 12h4v14h-4z"/></g><path d="m45 1h-4v2h1.59l-5 5h-11.59a1 1 0 0 0 -.65.24l-7 6 1.3 1.52 6.72-5.76h11.63a1 1 0 0 0 .71-.29l5.29-5.3v1.59h2v-4a1 1 0 0 0 -1-1z" fill="#c1c8d1"/></g></svg>